<?xml version="1.0" encoding="UTF-8" standalone="no"?>
<!DOCTYPE svg PUBLIC "-//W3C//DTD SVG 1.1//EN"
 "http://www.w3.org/Graphics/SVG/1.1/DTD/svg11.dtd">
<!-- Generated by graphviz version 2.47.0 (20210316.0004)
 -->
<!-- Title: dependencies Pages: 1 -->
<svg width="786pt" height="211pt"
 viewBox="0.00 0.00 786.00 211.00" xmlns="http://www.w3.org/2000/svg" xmlns:xlink="http://www.w3.org/1999/xlink">
<g id="graph0" class="graph" transform="scale(1 1) rotate(0) translate(4 207)">
<title>dependencies</title>
<polygon fill="white" stroke="transparent" points="-4,4 -4,-207 782,-207 782,4 -4,4"/>
<text text-anchor="start" x="368.01" y="-42.4" font-family="Times-12" font-weight="bold" font-size="14.00">Legend</text>
<polygon fill="#ffffb3" stroke="transparent" points="155,-10 155,-30 175,-30 175,-10 155,-10"/>
<text text-anchor="start" x="178.63" y="-15.4" font-family="Times-12" font-size="14.00"> &#160;Declarations</text>
<polygon fill="#8dd3c7" stroke="transparent" points="268,-10 268,-30 288,-30 288,-10 268,-10"/>
<text text-anchor="start" x="291.73" y="-15.4" font-family="Times-12" font-size="14.00"> &#160;Module</text>
<polygon fill="#80b1d3" stroke="transparent" points="354,-10 354,-30 374,-30 374,-10 354,-10"/>
<text text-anchor="start" x="377.78" y="-15.4" font-family="Times-12" font-size="14.00"> &#160;Bootstrap</text>
<polygon fill="#fdb462" stroke="transparent" points="451,-10 451,-30 471,-30 471,-10 451,-10"/>
<text text-anchor="start" x="474.67" y="-15.4" font-family="Times-12" font-size="14.00"> &#160;Providers</text>
<polygon fill="#fb8072" stroke="transparent" points="547,-10 547,-30 567,-30 567,-10 547,-10"/>
<text text-anchor="start" x="570.73" y="-15.4" font-family="Times-12" font-size="14.00"> &#160;Exports</text>
<g id="clust1" class="cluster">
<title>cluster_HomePageModule</title>
<polygon fill="none" stroke="black" stroke-dasharray="1,5" points="8,-70 8,-195 770,-195 770,-70 8,-70"/>
</g>
<g id="clust2" class="cluster">
<title>cluster_HomePageModule_declarations</title>
<polygon fill="none" stroke="black" points="668,-78 668,-130 762,-130 762,-78 668,-78"/>
</g>
<g id="clust4" class="cluster">
<title>cluster_HomePageModule_imports</title>
<polygon fill="none" stroke="black" points="16,-78 16,-130 660,-130 660,-78 16,-78"/>
</g>
<!-- HomePage -->
<g id="node1" class="node">
<title>HomePage</title>
<polygon fill="#ffffb3" stroke="black" points="753.92,-122 676.08,-122 676.08,-86 753.92,-86 753.92,-122"/>
<text text-anchor="middle" x="715" y="-99.8" font-family="Times,serif" font-size="14.00">HomePage</text>
</g>
<!-- HomePageModule -->
<g id="node2" class="node">
<title>HomePageModule</title>
<polygon fill="#8dd3c7" stroke="black" points="504.47,-187 501.47,-191 480.47,-191 477.47,-187 383.53,-187 383.53,-151 504.47,-151 504.47,-187"/>
<text text-anchor="middle" x="444" y="-164.8" font-family="Times,serif" font-size="14.00">HomePageModule</text>
</g>
<!-- HomePage&#45;&gt;HomePageModule -->
<g id="edge1" class="edge">
<title>HomePage&#45;&gt;HomePageModule</title>
<path fill="none" stroke="black" d="M715,-122.28C715,-143.32 715,-175 715,-175 715,-175 514.48,-175 514.48,-175"/>
<polygon fill="black" stroke="black" points="514.48,-171.5 504.48,-175 514.48,-178.5 514.48,-171.5"/>
</g>
<!-- FooterComponent -->
<g id="node3" class="node">
<title>FooterComponent</title>
<polygon fill="#8dd3c7" stroke="black" points="651.88,-122 648.88,-126 627.88,-126 624.88,-122 534.12,-122 534.12,-86 651.88,-86 651.88,-122"/>
<text text-anchor="middle" x="593" y="-99.8" font-family="Times,serif" font-size="14.00">FooterComponent</text>
</g>
<!-- FooterComponent&#45;&gt;HomePageModule -->
<g id="edge2" class="edge">
<title>FooterComponent&#45;&gt;HomePageModule</title>
<path fill="none" stroke="black" d="M593,-122.02C593,-139.37 593,-163 593,-163 593,-163 514.6,-163 514.6,-163"/>
<polygon fill="black" stroke="black" points="514.6,-159.5 504.6,-163 514.6,-166.5 514.6,-159.5"/>
</g>
<!-- HeroImageComponent -->
<g id="node4" class="node">
<title>HeroImageComponent</title>
<polygon fill="#8dd3c7" stroke="black" points="516.29,-122 513.29,-126 492.29,-126 489.29,-122 371.71,-122 371.71,-86 516.29,-86 516.29,-122"/>
<text text-anchor="middle" x="444" y="-99.8" font-family="Times,serif" font-size="14.00">HeroImageComponent</text>
</g>
<!-- HeroImageComponent&#45;&gt;HomePageModule -->
<g id="edge3" class="edge">
<title>HeroImageComponent&#45;&gt;HomePageModule</title>
<path fill="none" stroke="black" d="M444,-122.11C444,-122.11 444,-140.99 444,-140.99"/>
<polygon fill="black" stroke="black" points="440.5,-140.99 444,-150.99 447.5,-140.99 440.5,-140.99"/>
</g>
<!-- HomePageRoutingModule -->
<g id="node5" class="node">
<title>HomePageRoutingModule</title>
<polygon fill="#8dd3c7" stroke="black" points="354.09,-122 351.09,-126 330.09,-126 327.09,-122 187.91,-122 187.91,-86 354.09,-86 354.09,-122"/>
<text text-anchor="middle" x="271" y="-99.8" font-family="Times,serif" font-size="14.00">HomePageRoutingModule</text>
</g>
<!-- HomePageRoutingModule&#45;&gt;HomePageModule -->
<g id="edge4" class="edge">
<title>HomePageRoutingModule&#45;&gt;HomePageModule</title>
<path fill="none" stroke="black" d="M271,-122.02C271,-139.37 271,-163 271,-163 271,-163 373.49,-163 373.49,-163"/>
<polygon fill="black" stroke="black" points="373.49,-166.5 383.49,-163 373.49,-159.5 373.49,-166.5"/>
</g>
<!-- HowWorksComponent -->
<g id="node6" class="node">
<title>HowWorksComponent</title>
<polygon fill="#8dd3c7" stroke="black" points="169.87,-122 166.87,-126 145.87,-126 142.87,-122 24.13,-122 24.13,-86 169.87,-86 169.87,-122"/>
<text text-anchor="middle" x="97" y="-99.8" font-family="Times,serif" font-size="14.00">HowWorksComponent</text>
</g>
<!-- HowWorksComponent&#45;&gt;HomePageModule -->
<g id="edge5" class="edge">
<title>HowWorksComponent&#45;&gt;HomePageModule</title>
<path fill="none" stroke="black" d="M97,-122.28C97,-143.32 97,-175 97,-175 97,-175 373.16,-175 373.16,-175"/>
<polygon fill="black" stroke="black" points="373.16,-178.5 383.16,-175 373.16,-171.5 373.16,-178.5"/>
</g>
</g>
</svg>
