<svg width="56" height="57" viewBox="0 0 56 57" fill="none" xmlns="http://www.w3.org/2000/svg">
<path d="M46.1797 26.2711L49.2282 25.0537L55.7838 41.469L52.7352 42.6865L46.1797 26.2711Z" fill="#FF9F40"/>
<path d="M0.242188 41.4293L6.79772 25.014L9.84628 26.2314L3.29074 42.6468L0.242188 41.4293Z" fill="#FFBE40"/>
<path d="M49.3276 56.7998H6.67181V23.9877H49.3276V56.7998Z" fill="#FFDF40"/>
<path d="M28 23.9879H49.3279V56.8001H28V23.9879Z" fill="#FFBE40"/>
<path d="M26.3594 46.9567H29.6406V50.2379H26.3594V46.9567Z" fill="#665252"/>
<path d="M52.7188 20.4879H56V23.7691H52.7188V20.4879Z" fill="#D13465"/>
<path d="M6.67181 4.0816H9.95303V7.36282H6.67181V4.0816Z" fill="#FF525F"/>
<path d="M29.6406 43.6753H26.3593V42.9928C26.3593 40.3925 27.3319 38.1174 29.0285 36.7524C29.4162 36.4383 29.6406 35.9705 29.6406 35.4722C29.6406 34.5671 28.9051 33.8316 27.9999 33.8316C27.0948 33.8316 26.3593 34.5671 26.3593 35.4722H23.0781C23.0781 32.7582 25.2859 30.5504 27.9999 30.5504C30.714 30.5504 32.9218 32.7582 32.9218 35.4722C32.9218 36.9687 32.2537 38.3657 31.0874 39.3062C30.1676 40.0464 29.6406 41.3906 29.6406 42.9928V43.6753Z" fill="#665252"/>
<path d="M29.6406 35.4722C29.6406 35.9705 29.4163 36.4383 29.0286 36.7524C28.6434 37.0622 28.3076 37.4317 28 37.8284V43.6753H29.6406V42.9928C29.6406 41.3907 30.1677 40.0465 31.0874 39.3062C32.2538 38.3657 32.9218 36.9687 32.9218 35.4722C32.9218 32.7582 30.714 30.5504 28 30.5504V33.8316C28.9052 33.8316 29.6406 34.5671 29.6406 35.4722Z" fill="#4D3636"/>
<path d="M18.1561 10.6441C15.4421 10.6441 13.2343 8.43624 13.2343 5.72224C13.2343 3.00824 15.4421 0.800415 18.1561 0.800415C20.8701 0.800415 23.0779 3.00824 23.0779 5.72224C23.0779 8.43624 20.8701 10.6441 18.1561 10.6441Z" fill="#E1E6F0"/>
<path d="M42.7655 4.08163H39.4843V0.800415H36.2031V4.08163H32.9219V7.36285H36.2031V10.6441H39.4843V7.36285H42.7655V4.08163Z" fill="#FFBE40"/>
<path d="M6.56243 10.644H3.28122V13.9253H0V17.2065H3.28122V20.4877H6.56243V17.2065H9.84365V13.9253H6.56243V10.644Z" fill="#FFDF40"/>
<path d="M26.3594 7.36292H29.6406V17.2066H26.3594V7.36292Z" fill="#E1E6F0"/>
<path d="M14.2734 14.7614L17.1154 13.1205L20.3965 18.8033L17.5545 20.4441L14.2734 14.7614Z" fill="#E1E6F0"/>
<path d="M52.6083 10.6442H44.4052C42.8402 10.6442 41.4446 11.3792 40.5425 12.5212L40.5393 12.5187L35.7344 18.6086L38.3107 20.6401L40.2441 18.1897C41.1169 19.5692 42.6552 20.4878 44.4052 20.4878C47.1192 20.4878 49.327 18.28 49.327 15.566C49.327 14.9908 49.227 14.4389 49.0449 13.9254H52.6083V10.6442Z" fill="#C3D0E6"/>
<path d="M28 46.9567H29.6406V50.2379H28V46.9567Z" fill="#4D3636"/>
<path d="M28 7.36292H29.6406V17.2066H28V7.36292Z" fill="#C3D0E6"/>
</svg>
