<svg width="56" height="44" viewBox="0 0 56 44" fill="none" xmlns="http://www.w3.org/2000/svg">
<path d="M3.9603 19.8634C1.78223 19.8634 0.257812 18.502 0.257812 16.324L0.327673 3.91249C0.327673 2.57252 0.66751 1.4196 1.68894 0.706914C2.32782 0.26116 3.10485 -0.000366211 3.94306 -0.000366211H52.0566C54.2347 -0.000366211 56.0003 1.7653 56.0003 3.94336V16.3379C56.0003 17.2322 55.7027 18.0569 55.2011 18.7185C54.481 19.6683 53.3766 19.9334 52.0928 19.9334C48.4753 19.9333 3.9603 19.8634 3.9603 19.8634Z" fill="#EE6161"/>
<path d="M55.2934 18.5929C54.5812 19.6149 53.397 20.283 52.0573 20.283H3.94373C1.76567 20.283 0 18.5174 0 16.3393V3.94473C0 2.60499 0.668181 1.42074 1.69017 0.708618V16.3393C1.69017 17.581 2.70089 18.5929 3.94373 18.5929H55.2934Z" fill="#E94444"/>
<path d="M42.357 28.617C42.357 28.617 40.6177 28.6304 40.3026 29.4651V28.7401C40.3026 27.4806 37.8809 27.0963 37.8809 27.0963C37.8809 27.0963 35.7023 27.4806 35.7023 28.7401C35.7016 28.13 35.7007 27.9958 35.6999 27.3856C35.6999 26.1261 33.5237 25.8353 33.5237 25.8353C33.5237 25.8353 31.4456 25.8179 31.1802 26.7869V25.8353V19.4256C31.1802 18.1661 28.8801 17.4508 28.8801 17.4508C28.8801 17.4508 26.9816 18.314 26.9816 19.5735L26.5799 27.8508L25.5293 28.2504C23.9653 28.2504 22.8107 29.0889 22.8107 30.6656L22.7734 33.7893C22.7734 36.22 23.8203 38.4031 25.7676 39.8363L26.2182 40.1679C27.2297 40.9328 28.0729 41.9318 28.1792 43.1933C28.1937 43.3664 28.3349 43.501 28.5085 43.501L41.394 43.4451C41.5768 43.4451 41.7249 43.297 41.7249 43.1142C41.7249 42.6339 42.2521 42.5504 42.3568 42.0873C42.5422 41.2668 42.8878 40.4865 43.3783 39.794C44.1458 38.7105 44.5583 37.4124 44.5583 36.0811V30.2515C44.5582 29.0286 42.357 28.617 42.357 28.617Z" fill="#F1D0A5"/>
<path d="M29.6954 42.0872C29.5157 42.0872 29.3534 41.9778 29.2892 41.8099C28.8679 40.7069 28.1113 39.7057 27.0973 38.9395L26.6291 38.5938C25.134 37.4941 24.2428 35.7232 24.2428 33.8548V30.7025C24.2428 30.1067 24.7164 29.6039 25.3122 29.6015H25.3236H26.5838L27.3076 28.9091L26.5838 27.8512H25.3236C25.0992 27.8512 24.8819 27.8803 24.6725 27.9301C24.6737 27.9292 24.6747 27.928 24.676 27.927C23.4174 28.2113 22.4765 29.4174 22.4924 30.7057V32.456V33.8548C22.4924 36.2863 23.6433 38.5705 25.5905 40.0043L26.0412 40.3355C27.0534 41.1012 27.8017 42.268 27.9081 43.5297C27.9228 43.7029 28.064 43.8375 28.2378 43.8375H41.8701C42.0539 43.8375 42.2012 43.6888 42.2012 43.5063C42.2012 43.025 42.2552 42.5495 42.3602 42.0872H29.6954Z" fill="#F2BB88"/>
<path d="M31.185 19.424V20.445C31.185 19.8476 30.9531 19.3039 30.5737 18.8973C29.9704 18.2509 28.8848 18.6862 28.8848 19.5703V33.73C28.8848 34.3649 28.3702 34.8795 27.7354 34.8795C27.1005 34.8795 26.5859 34.3649 26.5859 33.73V19.424C26.5859 18.1651 27.6157 17.1442 28.8847 17.1442C30.1552 17.1442 31.185 18.1653 31.185 19.424Z" fill="#F2BB88"/>
<path d="M35.7047 28.4055C35.7047 27.8834 35.5278 27.4021 35.2302 27.0175C34.6656 26.2881 33.4906 26.7094 33.4906 27.6319V30.8103C33.4906 31.3293 33.0699 31.75 32.5509 31.75H32.1194C31.6 31.75 31.1791 31.3286 31.1797 30.8093L31.1844 26.785C31.4499 25.8165 32.3425 25.1031 33.4044 25.1031C33.4336 25.1031 33.4628 25.1031 33.4905 25.1046C34.7216 25.1498 35.7046 26.1533 35.7046 27.3844C35.7062 27.9941 35.7062 29.0152 35.7047 28.4055Z" fill="#F2BB88"/>
<path d="M40.3056 28.7389V29.7599C40.3056 29.1626 40.0737 28.6188 39.6943 28.2123C39.0911 27.5658 38.0054 28.0011 38.0054 28.8853V30.8301C38.0054 31.3491 37.5847 31.7699 37.0657 31.7699H36.6507C36.1317 31.7699 35.7109 31.3491 35.7109 30.8301V28.5813C35.7712 27.4098 36.8363 26.4366 38.0053 26.459C39.2757 26.4591 40.3056 27.4801 40.3056 28.7389Z" fill="#F2BB88"/>
<path d="M44.5594 30.2499V31.2709C44.5594 30.4982 43.9641 29.8174 43.2379 29.4216C42.7549 29.1583 42.1659 29.5161 42.1659 30.0661V30.8391C42.1659 31.353 41.7492 31.7697 41.2353 31.7697C40.7214 31.7697 40.3047 31.353 40.3047 30.8391V29.4637C40.6391 28.5541 41.5961 27.9271 42.6034 28.0502C43.7032 28.1714 44.5594 29.1107 44.5594 30.2499Z" fill="#F2BB88"/>
<path d="M42.4558 13.0504V7.26492C42.4558 6.80215 42.0993 6.39865 41.6367 6.38479C41.1582 6.37037 40.7656 6.75415 40.7656 7.22954V13.015C40.7656 13.4778 41.1221 13.8813 41.5847 13.8951C42.0632 13.9094 42.4558 13.5258 42.4558 13.0504Z" fill="#F9F8F9"/>
<path d="M53.1269 8.09996C53.6023 8.09996 53.9859 7.7075 53.9716 7.22885C53.9578 6.7663 53.5543 6.40979 53.0915 6.40979H50.6966C50.2299 6.40979 49.8516 6.78816 49.8516 7.25488V13.0226C49.8516 13.4894 50.2299 13.8677 50.6966 13.8677H53.0915C53.5543 13.8677 53.9578 13.5112 53.9716 13.0487C53.9861 12.5701 53.6023 12.1776 53.1269 12.1776H51.5417V10.9838H52.9123C53.3751 10.9838 53.7786 10.6273 53.7925 10.1648C53.8069 9.68624 53.4231 9.29367 52.9477 9.29367H51.5417V8.09996H53.1269Z" fill="#F9F8F9"/>
<path d="M17.7564 6.3844H16.1185C15.6518 6.3844 15.2734 6.76277 15.2734 7.22948V9.90987V9.91426V13.0304C15.2734 13.1482 15.2915 13.2669 15.3377 13.3753C15.4763 13.7013 15.7875 13.8955 16.1185 13.8955H16.1222C16.1222 13.8955 17.6763 13.8885 18.1046 13.8885C19.4345 13.8885 20.5165 12.8066 20.5165 11.4767C20.5165 10.756 20.197 10.1099 19.6944 9.6675C19.9164 9.288 20.0298 8.83763 19.9836 8.35728C19.8749 7.22813 18.8907 6.3844 17.7564 6.3844ZM17.7874 8.07457C18.0454 8.07457 18.2762 8.26274 18.3013 8.51954C18.3301 8.81419 18.0983 9.06321 17.8095 9.06321C17.7205 9.06287 17.3952 9.06479 16.9637 9.06479V8.07457H17.7874ZM18.1046 12.1984C17.8921 12.1984 17.4034 12.2001 16.9636 12.2017V10.7557C16.9727 10.7547 18.0291 10.7548 18.1046 10.7548C18.5026 10.7548 18.8263 11.0787 18.8263 11.4765C18.8263 11.8744 18.5026 12.1984 18.1046 12.1984Z" fill="#F9F8F9"/>
<path d="M46.1314 6.3844H44.4935C44.0268 6.3844 43.6484 6.76277 43.6484 7.22948V13.0303C43.6484 13.1481 43.6665 13.2668 43.7127 13.3752C43.8513 13.7011 44.1625 13.8954 44.4935 13.8954H44.4972C44.4972 13.8954 46.0513 13.8884 46.4796 13.8884C47.8095 13.8884 48.8915 12.8065 48.8915 11.4765C48.8915 10.7559 48.572 10.1098 48.0692 9.66739C48.2913 9.28789 48.4047 8.8374 48.3585 8.35717C48.2499 7.22813 47.2657 6.3844 46.1314 6.3844ZM46.1624 8.07457C46.4204 8.07457 46.6512 8.26274 46.6763 8.51954C46.7051 8.81419 46.4733 9.06321 46.1845 9.06321C46.0955 9.06287 45.7702 9.06479 45.3387 9.06479V8.07457H46.1624ZM46.4796 12.1984C46.2671 12.1984 45.7784 12.2001 45.3386 12.2017V10.7557C45.3477 10.7547 46.4041 10.7548 46.4796 10.7548C46.8776 10.7548 47.2013 11.0787 47.2013 11.4765C47.2013 11.8744 46.8776 12.1984 46.4796 12.1984Z" fill="#F9F8F9"/>
<path d="M30.9495 8.108C31.4867 8.01256 32.0205 8.12378 32.4604 8.41381C32.8363 8.66159 33.3534 8.59725 33.6255 8.23859C33.9213 7.84884 33.8261 7.29649 33.4262 7.02629C32.7217 6.55034 31.8827 6.3287 31.0234 6.39631C29.1022 6.54741 27.5914 8.17144 27.5705 10.0986C27.5479 12.1883 29.2412 13.8955 31.3259 13.8955C32.222 13.8769 33.1639 13.5484 33.8068 12.772C34.1068 12.4144 34.0601 11.8814 33.7026 11.5814C33.3449 11.2814 32.812 11.328 32.512 11.6856C32.2728 11.9602 31.9339 12.1734 31.3259 12.2053C30.0809 12.2053 29.0896 11.0979 29.2853 9.81642C29.4164 8.95737 30.094 8.26 30.9495 8.108Z" fill="#F9F8F9"/>
<path d="M4.90478 12.205C4.37204 12.205 3.86014 11.9966 3.52707 11.6461C3.21562 11.3183 2.70497 11.2434 2.35116 11.5251C1.96557 11.832 1.92445 12.3953 2.25009 12.7547C2.90689 13.4796 3.87445 13.8952 4.90478 13.8952C6.18852 13.8952 7.2673 13.0717 7.4699 11.9371C7.62314 11.0787 7.23936 9.95951 5.70277 9.39274C5.07988 9.16299 4.49429 8.91521 4.2215 8.79724C4.10589 8.74721 4.03355 8.6272 4.05068 8.50236C4.05079 8.50168 4.05091 8.50112 4.05091 8.50044C4.06251 8.41999 4.12268 8.22292 4.43142 8.12984C5.18895 7.90156 5.903 8.46112 5.92531 8.47892C6.28261 8.77447 6.81197 8.72692 7.11079 8.37143C7.41108 8.01412 7.36488 7.48104 7.00769 7.18076C6.95079 7.13298 5.59437 6.0142 3.94397 6.51156C3.09619 6.767 2.49606 7.43699 2.37786 8.26032C2.26654 9.03555 2.60277 9.78148 3.25517 10.2068C3.38611 10.2892 4.13744 10.6068 5.11774 10.9785C5.29521 11.0439 5.8693 11.2851 5.80587 11.6401C5.75742 11.9117 5.3991 12.205 4.90478 12.205Z" fill="#F9F8F9"/>
<path d="M24.2408 12.2051C23.7081 12.2051 23.1961 11.9967 22.863 11.6462C22.5516 11.3184 22.0409 11.2435 21.6871 11.5252C21.3015 11.8321 21.2604 12.3954 21.586 12.7548C22.2428 13.4797 23.2105 13.8954 24.2407 13.8954C25.5245 13.8954 26.6031 13.0718 26.8057 11.9372C26.959 11.0789 26.5753 9.95962 25.0386 9.39285C24.4157 9.1631 23.8302 8.91532 23.5573 8.79735C23.4417 8.74732 23.3693 8.62732 23.3865 8.50247C23.3866 8.50179 23.3867 8.50123 23.3867 8.50055C23.3983 8.42021 23.4585 8.22303 23.7672 8.12996C24.5239 7.90167 25.2376 8.46021 25.2611 8.47892C25.6183 8.77459 26.1478 8.72715 26.4466 8.37142C26.7469 8.01424 26.7007 7.48104 26.3434 7.18076C26.2865 7.13298 24.9301 6.0142 23.2797 6.51156C22.4319 6.767 21.8317 7.43699 21.7136 8.26032C21.6022 9.03555 21.9385 9.78148 22.591 10.2068C22.7218 10.2893 23.4733 10.6068 24.4535 10.9785C24.6309 11.0439 25.2049 11.2851 25.1416 11.64C25.0935 11.9118 24.7351 12.2051 24.2408 12.2051Z" fill="#F9F8F9"/>
<path d="M11.8736 12.0757C11.6998 12.1633 11.5124 12.2065 11.2933 12.2054C11.0595 12.2051 10.8569 12.1482 10.6742 12.0314C10.2387 11.7532 10.1511 11.5204 10.1511 11.235V7.26503C10.1511 6.80226 9.7946 6.39877 9.33205 6.38491C8.85351 6.37048 8.46094 6.75426 8.46094 7.22965V11.235C8.46094 12.1562 8.89948 12.9033 9.76417 13.4557C10.0869 13.6606 10.661 13.8863 11.2952 13.8955C11.7746 13.8955 12.2248 13.791 12.6337 13.5851C13.641 13.0779 14.1958 12.2417 14.1958 11.2306V7.26492C14.1958 6.80215 13.8393 6.39865 13.3767 6.38479C12.8982 6.37037 12.5056 6.75415 12.5056 7.22954V11.2307C12.5057 11.4912 12.4306 11.7953 11.8736 12.0757Z" fill="#F9F8F9"/>
<path d="M39.8059 8.74138C39.8059 7.4413 38.7098 6.38359 37.3624 6.38359H35.8156C35.8153 6.38359 35.815 6.38359 35.8147 6.38359H35.8138C35.349 6.35947 34.9688 6.72061 34.9688 7.18597V13.0141C34.9688 13.4769 35.3253 13.8804 35.7878 13.8943C36.2663 13.9087 36.6589 13.5249 36.6589 13.0495V11.7131L38.3266 13.6079C38.4935 13.7978 38.7268 13.8947 38.9613 13.8947C39.1632 13.8947 39.366 13.8227 39.528 13.6761C39.8749 13.3623 39.8822 12.8173 39.5731 12.4662L38.2334 10.944C39.1518 10.6045 39.8059 9.74556 39.8059 8.74138ZM37.3624 8.07376C37.7707 8.07376 38.1157 8.37945 38.1157 8.74138C38.1157 9.1033 37.7707 9.40911 37.3624 9.40911C37.197 9.40911 36.9313 9.41012 36.6667 9.41136C36.6651 9.13113 36.6647 8.69811 36.6632 8.07376H37.3624Z" fill="#F9F8F9"/>
</svg>
