<svg width="56" height="56" viewBox="0 0 56 56" fill="none" xmlns="http://www.w3.org/2000/svg">
<path d="M19.3402 3.3172L16.115 11.1827L6.17188 1.23954C10.429 -0.939176 15.7764 -0.246624 19.3402 3.3172Z" fill="#4BB3A4"/>
<path d="M11.3281 11.3259L23.2158 27.8539L30.4647 20.605L22.5708 12.7111C22.9815 9.36931 21.9034 5.88128 19.3381 3.31604L11.3281 11.3259Z" fill="#60D9CE"/>
<path d="M11.3272 11.3273L25.5351 25.5352L20.6056 30.4648L12.7117 22.5708C9.37064 22.9808 5.88263 21.9027 3.31739 19.3373C-0.246534 15.7734 -0.938647 10.427 1.23996 6.16956L8.86239 13.792L11.3272 11.3273Z" fill="#4BB3A4"/>
<path d="M36.6641 52.6815L39.8893 44.816L49.8324 54.7592C45.5751 56.9379 40.2279 56.2453 36.6641 52.6815Z" fill="#60D9CE"/>
<path d="M44.6679 44.6722L32.7802 28.1442L25.5312 35.3931L33.4251 43.287C33.0144 46.6288 34.0925 50.1168 36.6579 52.6821L44.6679 44.6722Z" fill="#4BB3A4"/>
<path d="M44.6766 44.6723L30.4688 30.4644L35.3983 25.5348L43.2922 33.4287C46.6332 33.0188 50.1212 34.0969 52.6865 36.6622C56.2502 40.2259 56.9424 45.5724 54.7638 49.8299L47.1414 42.2074L44.6766 44.6723Z" fill="#60D9CE"/>
<path d="M53.2434 2.75745L54.4757 3.98976C56.5089 6.02301 56.5089 9.35025 54.4757 11.3835L51.4837 14.3755L43.4609 9.44639L53.2434 2.75745Z" fill="#FF6126"/>
<path d="M52.0107 1.52465L53.243 2.75696L45.0074 10.9927L41.625 4.51667L44.617 1.52465C46.6503 -0.508706 49.9775 -0.508706 52.0107 1.52465Z" fill="#FF8151"/>
<path d="M46.5539 9.4469L51.4831 14.3761L46.5539 19.3053L38.5312 14.3761L46.5539 9.4469Z" fill="#A3FDF6"/>
<path d="M41.6244 4.51721L46.5537 9.44645L40.0777 15.9223L36.6953 9.44645L41.6244 4.51721Z" fill="#DBFFFA"/>
<path d="M4.52324 49.9293L5.60593 54.1056L0.65625 55.3431L4.52324 49.9293Z" fill="#000E0F"/>
<path d="M1.8937 50.3922L3.74987 52.2483L0.65625 55.3419L1.8937 50.3922Z" fill="#116371"/>
<path d="M9.64543 44.8063L13.8008 52.0553L5.60606 54.1048L3.75 52.2486L9.64543 44.8063Z" fill="#FFA07D"/>
<path d="M3.93929 42.1969L8.86885 47.1265L3.7468 52.2485L1.89062 50.3925L3.93929 42.1969Z" fill="#FFC0A8"/>
<path d="M41.626 14.3746L46.5552 19.3039L13.8042 52.0549L8.875 47.1257L22.9303 28.4301L41.626 14.3746Z" fill="#FFD15E"/>
<path d="M41.6244 14.376L36.6953 9.4469L3.94464 42.1976L8.87369 47.1267L41.6244 14.376Z" fill="#FFEA7C"/>
</svg>
