<?xml version="1.0" encoding="UTF-8" standalone="no"?>
<!DOCTYPE svg PUBLIC "-//W3C//DTD SVG 1.1//EN"
 "http://www.w3.org/Graphics/SVG/1.1/DTD/svg11.dtd">
<!-- Generated by graphviz version 2.47.0 (20210316.0004)
 -->
<!-- Title: dependencies Pages: 1 -->
<svg width="889pt" height="211pt"
 viewBox="0.00 0.00 889.00 211.00" xmlns="http://www.w3.org/2000/svg" xmlns:xlink="http://www.w3.org/1999/xlink">
<g id="graph0" class="graph" transform="scale(1 1) rotate(0) translate(4 207)">
<title>dependencies</title>
<polygon fill="white" stroke="transparent" points="-4,4 -4,-207 885,-207 885,4 -4,4"/>
<text text-anchor="start" x="419.51" y="-42.4" font-family="Times-12" font-weight="bold" font-size="14.00">Legend</text>
<polygon fill="#ffffb3" stroke="transparent" points="206.5,-10 206.5,-30 226.5,-30 226.5,-10 206.5,-10"/>
<text text-anchor="start" x="230.13" y="-15.4" font-family="Times-12" font-size="14.00"> &#160;Declarations</text>
<polygon fill="#8dd3c7" stroke="transparent" points="319.5,-10 319.5,-30 339.5,-30 339.5,-10 319.5,-10"/>
<text text-anchor="start" x="343.23" y="-15.4" font-family="Times-12" font-size="14.00"> &#160;Module</text>
<polygon fill="#80b1d3" stroke="transparent" points="405.5,-10 405.5,-30 425.5,-30 425.5,-10 405.5,-10"/>
<text text-anchor="start" x="429.28" y="-15.4" font-family="Times-12" font-size="14.00"> &#160;Bootstrap</text>
<polygon fill="#fdb462" stroke="transparent" points="502.5,-10 502.5,-30 522.5,-30 522.5,-10 502.5,-10"/>
<text text-anchor="start" x="526.17" y="-15.4" font-family="Times-12" font-size="14.00"> &#160;Providers</text>
<polygon fill="#fb8072" stroke="transparent" points="598.5,-10 598.5,-30 618.5,-30 618.5,-10 598.5,-10"/>
<text text-anchor="start" x="622.23" y="-15.4" font-family="Times-12" font-size="14.00"> &#160;Exports</text>
<g id="clust1" class="cluster">
<title>cluster_SubscribePageModule</title>
<polygon fill="none" stroke="black" stroke-dasharray="1,5" points="8,-70 8,-195 873,-195 873,-70 8,-70"/>
</g>
<g id="clust4" class="cluster">
<title>cluster_SubscribePageModule_imports</title>
<polygon fill="none" stroke="black" points="138,-78 138,-130 865,-130 865,-78 138,-78"/>
</g>
<g id="clust2" class="cluster">
<title>cluster_SubscribePageModule_declarations</title>
<polygon fill="none" stroke="black" points="16,-78 16,-130 130,-130 130,-78 16,-78"/>
</g>
<!-- SubscribePage -->
<g id="node1" class="node">
<title>SubscribePage</title>
<polygon fill="#ffffb3" stroke="black" points="122.42,-122 23.58,-122 23.58,-86 122.42,-86 122.42,-122"/>
<text text-anchor="middle" x="73" y="-99.8" font-family="Times,serif" font-size="14.00">SubscribePage</text>
</g>
<!-- SubscribePageModule -->
<g id="node2" class="node">
<title>SubscribePageModule</title>
<polygon fill="#8dd3c7" stroke="black" points="505.97,-187 502.97,-191 481.97,-191 478.97,-187 364.03,-187 364.03,-151 505.97,-151 505.97,-187"/>
<text text-anchor="middle" x="435" y="-164.8" font-family="Times,serif" font-size="14.00">SubscribePageModule</text>
</g>
<!-- SubscribePage&#45;&gt;SubscribePageModule -->
<g id="edge1" class="edge">
<title>SubscribePage&#45;&gt;SubscribePageModule</title>
<path fill="none" stroke="black" d="M73,-122.28C73,-143.32 73,-175 73,-175 73,-175 353.91,-175 353.91,-175"/>
<polygon fill="black" stroke="black" points="353.91,-178.5 363.91,-175 353.91,-171.5 353.91,-178.5"/>
</g>
<!-- FooterComponent -->
<g id="node3" class="node">
<title>FooterComponent</title>
<polygon fill="#8dd3c7" stroke="black" points="856.88,-122 853.88,-126 832.88,-126 829.88,-122 739.12,-122 739.12,-86 856.88,-86 856.88,-122"/>
<text text-anchor="middle" x="798" y="-99.8" font-family="Times,serif" font-size="14.00">FooterComponent</text>
</g>
<!-- FooterComponent&#45;&gt;SubscribePageModule -->
<g id="edge2" class="edge">
<title>FooterComponent&#45;&gt;SubscribePageModule</title>
<path fill="none" stroke="black" d="M798,-122.28C798,-143.32 798,-175 798,-175 798,-175 516.28,-175 516.28,-175"/>
<polygon fill="black" stroke="black" points="516.28,-171.5 506.28,-175 516.28,-178.5 516.28,-171.5"/>
</g>
<!-- PaymentSummaryComponent -->
<g id="node4" class="node">
<title>PaymentSummaryComponent</title>
<polygon fill="#8dd3c7" stroke="black" points="721.26,-122 718.26,-126 697.26,-126 694.26,-122 536.74,-122 536.74,-86 721.26,-86 721.26,-122"/>
<text text-anchor="middle" x="629" y="-99.8" font-family="Times,serif" font-size="14.00">PaymentSummaryComponent</text>
</g>
<!-- PaymentSummaryComponent&#45;&gt;SubscribePageModule -->
<g id="edge3" class="edge">
<title>PaymentSummaryComponent&#45;&gt;SubscribePageModule</title>
<path fill="none" stroke="black" d="M629,-122.02C629,-139.37 629,-163 629,-163 629,-163 516.14,-163 516.14,-163"/>
<polygon fill="black" stroke="black" points="516.14,-159.5 506.14,-163 516.14,-166.5 516.14,-159.5"/>
</g>
<!-- SubscribeFormComponent -->
<g id="node5" class="node">
<title>SubscribeFormComponent</title>
<polygon fill="#8dd3c7" stroke="black" points="518.37,-122 515.37,-126 494.37,-126 491.37,-122 351.63,-122 351.63,-86 518.37,-86 518.37,-122"/>
<text text-anchor="middle" x="435" y="-99.8" font-family="Times,serif" font-size="14.00">SubscribeFormComponent</text>
</g>
<!-- SubscribeFormComponent&#45;&gt;SubscribePageModule -->
<g id="edge4" class="edge">
<title>SubscribeFormComponent&#45;&gt;SubscribePageModule</title>
<path fill="none" stroke="black" d="M435,-122.11C435,-122.11 435,-140.99 435,-140.99"/>
<polygon fill="black" stroke="black" points="431.5,-140.99 435,-150.99 438.5,-140.99 431.5,-140.99"/>
</g>
<!-- SubscribePageRoutingModule -->
<g id="node6" class="node">
<title>SubscribePageRoutingModule</title>
<polygon fill="#8dd3c7" stroke="black" points="333.59,-122 330.59,-126 309.59,-126 306.59,-122 146.41,-122 146.41,-86 333.59,-86 333.59,-122"/>
<text text-anchor="middle" x="240" y="-99.8" font-family="Times,serif" font-size="14.00">SubscribePageRoutingModule</text>
</g>
<!-- SubscribePageRoutingModule&#45;&gt;SubscribePageModule -->
<g id="edge5" class="edge">
<title>SubscribePageRoutingModule&#45;&gt;SubscribePageModule</title>
<path fill="none" stroke="black" d="M240,-122.02C240,-139.37 240,-163 240,-163 240,-163 353.77,-163 353.77,-163"/>
<polygon fill="black" stroke="black" points="353.77,-166.5 363.77,-163 353.77,-159.5 353.77,-166.5"/>
</g>
</g>
</svg>
