<?xml version="1.0" encoding="UTF-8" standalone="no"?>
<!DOCTYPE svg PUBLIC "-//W3C//DTD SVG 1.1//EN"
 "http://www.w3.org/Graphics/SVG/1.1/DTD/svg11.dtd">
<!-- Generated by graphviz version 2.47.0 (20210316.0004)
 -->
<!-- Title: dependencies Pages: 1 -->
<svg width="1961pt" height="284pt"
 viewBox="0.00 0.00 1961.00 284.00" xmlns="http://www.w3.org/2000/svg" xmlns:xlink="http://www.w3.org/1999/xlink">
<g id="graph0" class="graph" transform="scale(1 1) rotate(0) translate(4 280)">
<title>dependencies</title>
<polygon fill="white" stroke="transparent" points="-4,4 -4,-280 1957,-280 1957,4 -4,4"/>
<text text-anchor="start" x="955.51" y="-42.4" font-family="Times-12" font-weight="bold" font-size="14.00">Legend</text>
<polygon fill="#ffffb3" stroke="transparent" points="742.5,-10 742.5,-30 762.5,-30 762.5,-10 742.5,-10"/>
<text text-anchor="start" x="766.13" y="-15.4" font-family="Times-12" font-size="14.00"> &#160;Declarations</text>
<polygon fill="#8dd3c7" stroke="transparent" points="855.5,-10 855.5,-30 875.5,-30 875.5,-10 855.5,-10"/>
<text text-anchor="start" x="879.23" y="-15.4" font-family="Times-12" font-size="14.00"> &#160;Module</text>
<polygon fill="#80b1d3" stroke="transparent" points="941.5,-10 941.5,-30 961.5,-30 961.5,-10 941.5,-10"/>
<text text-anchor="start" x="965.28" y="-15.4" font-family="Times-12" font-size="14.00"> &#160;Bootstrap</text>
<polygon fill="#fdb462" stroke="transparent" points="1038.5,-10 1038.5,-30 1058.5,-30 1058.5,-10 1038.5,-10"/>
<text text-anchor="start" x="1062.17" y="-15.4" font-family="Times-12" font-size="14.00"> &#160;Providers</text>
<polygon fill="#fb8072" stroke="transparent" points="1134.5,-10 1134.5,-30 1154.5,-30 1154.5,-10 1134.5,-10"/>
<text text-anchor="start" x="1158.23" y="-15.4" font-family="Times-12" font-size="14.00"> &#160;Exports</text>
<g id="clust1" class="cluster">
<title>cluster_AppModule</title>
<polygon fill="none" stroke="black" stroke-dasharray="1,5" points="8,-70 8,-268 438,-268 438,-70 8,-70"/>
</g>
<g id="clust2" class="cluster">
<title>cluster_AppModule_declarations</title>
<polygon fill="none" stroke="black" points="308,-78 308,-130 430,-130 430,-78 308,-78"/>
</g>
<g id="clust4" class="cluster">
<title>cluster_AppModule_imports</title>
<polygon fill="none" stroke="black" points="16,-78 16,-130 300,-130 300,-78 16,-78"/>
</g>
<g id="clust6" class="cluster">
<title>cluster_AppModule_bootstrap</title>
<polygon fill="none" stroke="black" points="166,-208 166,-260 290,-260 290,-208 166,-208"/>
</g>
<g id="clust14" class="cluster">
<title>cluster_HomePageModule</title>
<polygon fill="none" stroke="black" stroke-dasharray="1,5" points="446,-70 446,-195 1208,-195 1208,-70 446,-70"/>
</g>
<g id="clust15" class="cluster">
<title>cluster_HomePageModule_declarations</title>
<polygon fill="none" stroke="black" points="454,-78 454,-130 548,-130 548,-78 454,-78"/>
</g>
<g id="clust17" class="cluster">
<title>cluster_HomePageModule_imports</title>
<polygon fill="none" stroke="black" points="556,-78 556,-130 1200,-130 1200,-78 556,-78"/>
</g>
<g id="clust27" class="cluster">
<title>cluster_SubscribePageModule</title>
<polygon fill="none" stroke="black" stroke-dasharray="1,5" points="1216,-70 1216,-195 1945,-195 1945,-70 1216,-70"/>
</g>
<g id="clust28" class="cluster">
<title>cluster_SubscribePageModule_declarations</title>
<polygon fill="none" stroke="black" points="1823,-78 1823,-130 1937,-130 1937,-78 1823,-78"/>
</g>
<g id="clust30" class="cluster">
<title>cluster_SubscribePageModule_imports</title>
<polygon fill="none" stroke="black" points="1224,-78 1224,-130 1815,-130 1815,-78 1224,-78"/>
</g>
<!-- AppComponent -->
<g id="node1" class="node">
<title>AppComponent</title>
<polygon fill="#ffffb3" stroke="black" points="421.94,-122 316.06,-122 316.06,-86 421.94,-86 421.94,-122"/>
<text text-anchor="middle" x="369" y="-99.8" font-family="Times,serif" font-size="14.00">AppComponent</text>
</g>
<!-- AppModule -->
<g id="node2" class="node">
<title>AppModule</title>
<polygon fill="#8dd3c7" stroke="black" points="269.66,-187 266.66,-191 245.66,-191 242.66,-187 186.34,-187 186.34,-151 269.66,-151 269.66,-187"/>
<text text-anchor="middle" x="228" y="-164.8" font-family="Times,serif" font-size="14.00">AppModule</text>
</g>
<!-- AppComponent&#45;&gt;AppModule -->
<g id="edge1" class="edge">
<title>AppComponent&#45;&gt;AppModule</title>
<path fill="none" stroke="black" d="M369,-122.29C369,-144.21 369,-178 369,-178 369,-178 279.92,-178 279.92,-178"/>
<polygon fill="black" stroke="black" points="279.92,-174.5 269.92,-178 279.92,-181.5 279.92,-174.5"/>
</g>
<!-- AppComponent  -->
<g id="node5" class="node">
<title>AppComponent </title>
<polygon fill="#80b1d3" stroke="black" points="282.44,-252 173.56,-252 173.56,-216 282.44,-216 282.44,-252"/>
<text text-anchor="middle" x="228" y="-229.8" font-family="Times,serif" font-size="14.00">AppComponent </text>
</g>
<!-- AppModule&#45;&gt;AppComponent  -->
<g id="edge4" class="edge">
<title>AppModule&#45;&gt;AppComponent </title>
<path fill="none" stroke="black" stroke-dasharray="1,5" d="M228,-187.11C228,-187.11 228,-205.99 228,-205.99"/>
<polygon fill="black" stroke="black" points="224.5,-205.99 228,-215.99 231.5,-205.99 224.5,-205.99"/>
</g>
<!-- AppRoutingModule -->
<g id="node3" class="node">
<title>AppRoutingModule</title>
<polygon fill="#8dd3c7" stroke="black" points="292.27,-122 289.27,-126 268.27,-126 265.27,-122 163.73,-122 163.73,-86 292.27,-86 292.27,-122"/>
<text text-anchor="middle" x="228" y="-99.8" font-family="Times,serif" font-size="14.00">AppRoutingModule</text>
</g>
<!-- AppRoutingModule&#45;&gt;AppModule -->
<g id="edge2" class="edge">
<title>AppRoutingModule&#45;&gt;AppModule</title>
<path fill="none" stroke="black" d="M228,-122.11C228,-122.11 228,-140.99 228,-140.99"/>
<polygon fill="black" stroke="black" points="224.5,-140.99 228,-150.99 231.5,-140.99 224.5,-140.99"/>
</g>
<!-- HeaderComponent -->
<g id="node4" class="node">
<title>HeaderComponent</title>
<polygon fill="#8dd3c7" stroke="black" points="145.74,-122 142.74,-126 121.74,-126 118.74,-122 24.26,-122 24.26,-86 145.74,-86 145.74,-122"/>
<text text-anchor="middle" x="85" y="-99.8" font-family="Times,serif" font-size="14.00">HeaderComponent</text>
</g>
<!-- HeaderComponent&#45;&gt;AppModule -->
<g id="edge3" class="edge">
<title>HeaderComponent&#45;&gt;AppModule</title>
<path fill="none" stroke="black" d="M85,-122.11C85,-141.34 85,-169 85,-169 85,-169 176.25,-169 176.25,-169"/>
<polygon fill="black" stroke="black" points="176.25,-172.5 186.25,-169 176.25,-165.5 176.25,-172.5"/>
</g>
<!-- HomePage -->
<g id="node6" class="node">
<title>HomePage</title>
<polygon fill="#ffffb3" stroke="black" points="539.92,-122 462.08,-122 462.08,-86 539.92,-86 539.92,-122"/>
<text text-anchor="middle" x="501" y="-99.8" font-family="Times,serif" font-size="14.00">HomePage</text>
</g>
<!-- HomePageModule -->
<g id="node7" class="node">
<title>HomePageModule</title>
<polygon fill="#8dd3c7" stroke="black" points="871.47,-187 868.47,-191 847.47,-191 844.47,-187 750.53,-187 750.53,-151 871.47,-151 871.47,-187"/>
<text text-anchor="middle" x="811" y="-164.8" font-family="Times,serif" font-size="14.00">HomePageModule</text>
</g>
<!-- HomePage&#45;&gt;HomePageModule -->
<g id="edge5" class="edge">
<title>HomePage&#45;&gt;HomePageModule</title>
<path fill="none" stroke="black" d="M501,-122.11C501,-141.34 501,-169 501,-169 501,-169 740.49,-169 740.49,-169"/>
<polygon fill="black" stroke="black" points="740.49,-172.5 750.49,-169 740.49,-165.5 740.49,-172.5"/>
</g>
<!-- FooterComponent -->
<g id="node8" class="node">
<title>FooterComponent</title>
<polygon fill="#8dd3c7" stroke="black" points="1191.88,-122 1188.88,-126 1167.88,-126 1164.88,-122 1074.12,-122 1074.12,-86 1191.88,-86 1191.88,-122"/>
<text text-anchor="middle" x="1133" y="-99.8" font-family="Times,serif" font-size="14.00">FooterComponent</text>
</g>
<!-- FooterComponent&#45;&gt;HomePageModule -->
<g id="edge6" class="edge">
<title>FooterComponent&#45;&gt;HomePageModule</title>
<path fill="none" stroke="black" d="M1113.35,-122.01C1113.35,-144.49 1113.35,-180 1113.35,-180 1113.35,-180 881.82,-180 881.82,-180"/>
<polygon fill="black" stroke="black" points="881.82,-176.5 871.82,-180 881.82,-183.5 881.82,-176.5"/>
</g>
<!-- SubscribePageModule -->
<g id="node13" class="node">
<title>SubscribePageModule</title>
<polygon fill="#8dd3c7" stroke="black" points="1591.97,-187 1588.97,-191 1567.97,-191 1564.97,-187 1450.03,-187 1450.03,-151 1591.97,-151 1591.97,-187"/>
<text text-anchor="middle" x="1521" y="-164.8" font-family="Times,serif" font-size="14.00">SubscribePageModule</text>
</g>
<!-- FooterComponent&#45;&gt;SubscribePageModule -->
<g id="edge11" class="edge">
<title>FooterComponent&#45;&gt;SubscribePageModule</title>
<path fill="none" stroke="black" d="M1152.65,-122.27C1152.65,-140.56 1152.65,-166 1152.65,-166 1152.65,-166 1439.98,-166 1439.98,-166"/>
<polygon fill="black" stroke="black" points="1439.98,-169.5 1449.98,-166 1439.98,-162.5 1439.98,-169.5"/>
</g>
<!-- HeroImageComponent -->
<g id="node9" class="node">
<title>HeroImageComponent</title>
<polygon fill="#8dd3c7" stroke="black" points="1056.29,-122 1053.29,-126 1032.29,-126 1029.29,-122 911.71,-122 911.71,-86 1056.29,-86 1056.29,-122"/>
<text text-anchor="middle" x="984" y="-99.8" font-family="Times,serif" font-size="14.00">HeroImageComponent</text>
</g>
<!-- HeroImageComponent&#45;&gt;HomePageModule -->
<g id="edge7" class="edge">
<title>HeroImageComponent&#45;&gt;HomePageModule</title>
<path fill="none" stroke="black" d="M984,-122.13C984,-142.57 984,-173 984,-173 984,-173 881.51,-173 881.51,-173"/>
<polygon fill="black" stroke="black" points="881.51,-169.5 871.51,-173 881.51,-176.5 881.51,-169.5"/>
</g>
<!-- HomePageRoutingModule -->
<g id="node10" class="node">
<title>HomePageRoutingModule</title>
<polygon fill="#8dd3c7" stroke="black" points="894.09,-122 891.09,-126 870.09,-126 867.09,-122 727.91,-122 727.91,-86 894.09,-86 894.09,-122"/>
<text text-anchor="middle" x="811" y="-99.8" font-family="Times,serif" font-size="14.00">HomePageRoutingModule</text>
</g>
<!-- HomePageRoutingModule&#45;&gt;HomePageModule -->
<g id="edge8" class="edge">
<title>HomePageRoutingModule&#45;&gt;HomePageModule</title>
<path fill="none" stroke="black" d="M811,-122.11C811,-122.11 811,-140.99 811,-140.99"/>
<polygon fill="black" stroke="black" points="807.5,-140.99 811,-150.99 814.5,-140.99 807.5,-140.99"/>
</g>
<!-- HowWorksComponent -->
<g id="node11" class="node">
<title>HowWorksComponent</title>
<polygon fill="#8dd3c7" stroke="black" points="709.87,-122 706.87,-126 685.87,-126 682.87,-122 564.13,-122 564.13,-86 709.87,-86 709.87,-122"/>
<text text-anchor="middle" x="637" y="-99.8" font-family="Times,serif" font-size="14.00">HowWorksComponent</text>
</g>
<!-- HowWorksComponent&#45;&gt;HomePageModule -->
<g id="edge9" class="edge">
<title>HowWorksComponent&#45;&gt;HomePageModule</title>
<path fill="none" stroke="black" d="M637,-122.03C637,-138.4 637,-160 637,-160 637,-160 740.14,-160 740.14,-160"/>
<polygon fill="black" stroke="black" points="740.14,-163.5 750.14,-160 740.14,-156.5 740.14,-163.5"/>
</g>
<!-- SubscribePage -->
<g id="node12" class="node">
<title>SubscribePage</title>
<polygon fill="#ffffb3" stroke="black" points="1929.42,-122 1830.58,-122 1830.58,-86 1929.42,-86 1929.42,-122"/>
<text text-anchor="middle" x="1880" y="-99.8" font-family="Times,serif" font-size="14.00">SubscribePage</text>
</g>
<!-- SubscribePage&#45;&gt;SubscribePageModule -->
<g id="edge10" class="edge">
<title>SubscribePage&#45;&gt;SubscribePageModule</title>
<path fill="none" stroke="black" d="M1880,-122.28C1880,-143.32 1880,-175 1880,-175 1880,-175 1602.36,-175 1602.36,-175"/>
<polygon fill="black" stroke="black" points="1602.36,-171.5 1592.36,-175 1602.36,-178.5 1602.36,-171.5"/>
</g>
<!-- PaymentSummaryComponent -->
<g id="node14" class="node">
<title>PaymentSummaryComponent</title>
<polygon fill="#8dd3c7" stroke="black" points="1807.26,-122 1804.26,-126 1783.26,-126 1780.26,-122 1622.74,-122 1622.74,-86 1807.26,-86 1807.26,-122"/>
<text text-anchor="middle" x="1715" y="-99.8" font-family="Times,serif" font-size="14.00">PaymentSummaryComponent</text>
</g>
<!-- PaymentSummaryComponent&#45;&gt;SubscribePageModule -->
<g id="edge12" class="edge">
<title>PaymentSummaryComponent&#45;&gt;SubscribePageModule</title>
<path fill="none" stroke="black" d="M1715,-122.02C1715,-139.37 1715,-163 1715,-163 1715,-163 1602.14,-163 1602.14,-163"/>
<polygon fill="black" stroke="black" points="1602.14,-159.5 1592.14,-163 1602.14,-166.5 1602.14,-159.5"/>
</g>
<!-- SubscribeFormComponent -->
<g id="node15" class="node">
<title>SubscribeFormComponent</title>
<polygon fill="#8dd3c7" stroke="black" points="1604.37,-122 1601.37,-126 1580.37,-126 1577.37,-122 1437.63,-122 1437.63,-86 1604.37,-86 1604.37,-122"/>
<text text-anchor="middle" x="1521" y="-99.8" font-family="Times,serif" font-size="14.00">SubscribeFormComponent</text>
</g>
<!-- SubscribeFormComponent&#45;&gt;SubscribePageModule -->
<g id="edge13" class="edge">
<title>SubscribeFormComponent&#45;&gt;SubscribePageModule</title>
<path fill="none" stroke="black" d="M1521,-122.11C1521,-122.11 1521,-140.99 1521,-140.99"/>
<polygon fill="black" stroke="black" points="1517.5,-140.99 1521,-150.99 1524.5,-140.99 1517.5,-140.99"/>
</g>
<!-- SubscribePageRoutingModule -->
<g id="node16" class="node">
<title>SubscribePageRoutingModule</title>
<polygon fill="#8dd3c7" stroke="black" points="1419.59,-122 1416.59,-126 1395.59,-126 1392.59,-122 1232.41,-122 1232.41,-86 1419.59,-86 1419.59,-122"/>
<text text-anchor="middle" x="1326" y="-99.8" font-family="Times,serif" font-size="14.00">SubscribePageRoutingModule</text>
</g>
<!-- SubscribePageRoutingModule&#45;&gt;SubscribePageModule -->
<g id="edge14" class="edge">
<title>SubscribePageRoutingModule&#45;&gt;SubscribePageModule</title>
<path fill="none" stroke="black" d="M1326,-122.01C1326,-138.05 1326,-159 1326,-159 1326,-159 1439.77,-159 1439.77,-159"/>
<polygon fill="black" stroke="black" points="1439.77,-162.5 1449.77,-159 1439.77,-155.5 1439.77,-162.5"/>
</g>
</g>
</svg>
